<?xml version="1.0" encoding="UTF-8" standalone="no"?>
<!-- Created with Inkscape (http://www.inkscape.org/) -->

<svg
   version="1.0"
   width="376"
   height="325"
   id="svg1415"
   sodipodi:docname="coordinates.svg"
   inkscape:version="1.1 (c68e22c387, 2021-05-23)"
   xmlns:inkscape="http://www.inkscape.org/namespaces/inkscape"
   xmlns:sodipodi="http://sodipodi.sourceforge.net/DTD/sodipodi-0.dtd"
   xmlns="http://www.w3.org/2000/svg"
   xmlns:svg="http://www.w3.org/2000/svg">
  <sodipodi:namedview
     id="namedview1006"
     pagecolor="#ffffff"
     bordercolor="#666666"
     borderopacity="1.0"
     inkscape:pageshadow="2"
     inkscape:pageopacity="0.0"
     inkscape:pagecheckerboard="0"
     showgrid="false"
     inkscape:zoom="2.2740908"
     inkscape:cx="199.42036"
     inkscape:cy="157.20568"
     inkscape:window-width="1920"
     inkscape:window-height="1058"
     inkscape:window-x="0"
     inkscape:window-y="0"
     inkscape:window-maximized="1"
     inkscape:current-layer="svg1415" />
  <defs
     id="defs1417" />
  <g
     aria-label="0"
     id="text3"
     style="font-size:10.4608px;font-family:ArialMT;-inkscape-font-specification:'ArialMT, Normal'">
    <path
       d="m 143.30613,162.33115 q -0.79682,0 -1.20034,0.7866 -0.39841,0.78149 -0.39841,2.3547 0,1.5681 0.39841,2.3547 0.40352,0.7815 1.20034,0.7815 0.80192,0 1.20033,-0.7815 0.40352,-0.7866 0.40352,-2.3547 0,-1.57321 -0.40352,-2.3547 -0.39841,-0.7866 -1.20033,-0.7866 z m 0,-0.81725 q 1.28206,0 1.95629,1.01645 0.67934,1.01135 0.67934,2.9421 0,1.92565 -0.67934,2.9421 -0.67423,1.01135 -1.95629,1.01135 -1.28206,0 -1.9614,-1.01135 -0.67423,-1.01645 -0.67423,-2.9421 0,-1.93075 0.67423,-2.9421 0.67934,-1.01645 1.9614,-1.01645 z"
       id="path1601" />
  </g>
  <path
     id="line5"
     style="fill:none;stroke:#00a0c6;stroke-width:0.797;stroke-linecap:square;stroke-miterlimit:10"
     d="M 2.6020424,322.5177 V 24.881687" />
  <g
     aria-label="-5"
     id="text7"
     style="font-size:10.4608px;font-family:ArialMT">
    <path
       d="m 16.696069,166.14158 h 2.753111 v 0.83768 h -2.753111 z"
       style="font-size:10.4608px;font-family:ArialMT"
       id="path1595" />
    <path
       d="m 21.088788,161.79994 h 4.050495 v 0.86833 h -3.10555 v 1.86946 q 0.224744,-0.0766 0.449487,-0.11238 0.224744,-0.0409 0.449488,-0.0409 1.276953,0 2.022694,0.69977 0.74574,0.69977 0.74574,1.895 0,1.23098 -0.766172,1.91543 -0.766171,0.67934 -2.160604,0.67934 -0.480135,0 -0.9807,-0.0817 -0.495458,-0.0817 -1.026671,-0.24517 v -1.03689 q 0.459703,0.25029 0.950053,0.37287 0.49035,0.12259 1.036886,0.12259 0.883652,0 1.399541,-0.46481 0.515889,-0.46481 0.515889,-1.26163 0,-0.79682 -0.515889,-1.26163 -0.515889,-0.46481 -1.399541,-0.46481 -0.413732,0 -0.827465,0.0919 -0.408625,0.0919 -0.837681,0.28604 z"
       style="font-size:10.4608px;font-family:ArialMT"
       id="path1597" />
  </g>
  <path
     id="line9"
     style="fill:none;stroke:#00a0c6;stroke-width:0.797;stroke-linecap:square;stroke-miterlimit:10"
     d="M 27.407036,322.5177 V 24.881687" />
  <g
     aria-label="-4"
     id="text11"
     style="font-size:10.4608px;font-family:ArialMT">
    <path
       d="m 41.498864,166.14158 h 2.753111 v 0.83768 h -2.753111 z"
       style="font-size:10.4608px;font-family:ArialMT"
       id="path1589" />
    <path
       d="m 48.716203,162.69891 -2.604984,4.07093 h 2.604984 z m -0.270714,-0.89897 h 1.297385 v 4.9699 h 1.087964 v 0.85811 h -1.087964 v 1.79795 h -1.026671 v -1.79795 h -3.442665 v -0.99602 z"
       style="font-size:10.4608px;font-family:ArialMT"
       id="path1591" />
  </g>
  <path
     id="line13"
     style="fill:none;stroke:#00a0c6;stroke-width:0.797;stroke-linecap:square;stroke-miterlimit:10"
     d="M 52.209038,322.5177 V 24.881687" />
  <g
     aria-label="-3"
     id="text15"
     style="font-size:10.4608px;font-family:ArialMT">
    <path
       d="m 66.302056,166.27949 h 2.753111 v 0.83768 h -2.753111 z"
       style="font-size:10.4608px;font-family:ArialMT"
       id="path1583" />
    <path
       d="m 73.810541,165.45202 q 0.740633,0.15835 1.154365,0.65891 0.418841,0.50057 0.418841,1.23609 0,1.12883 -0.776387,1.74687 -0.776388,0.61805 -2.206576,0.61805 -0.480134,0 -0.990915,-0.097 -0.505674,-0.0919 -1.047102,-0.28093 v -0.99602 q 0.429057,0.25028 0.939838,0.37798 0.510781,0.12769 1.067533,0.12769 0.970484,0 1.476157,-0.38309 0.510782,-0.38308 0.510782,-1.1135 0,-0.67423 -0.475027,-1.05221 -0.469919,-0.38308 -1.312708,-0.38308 h -0.888759 v -0.8479 h 0.929622 q 0.761064,0 1.164581,-0.30136 0.403517,-0.30647 0.403517,-0.87855 0,-0.58739 -0.41884,-0.89897 -0.413733,-0.31668 -1.190121,-0.31668 -0.423948,0 -0.90919,0.0919 -0.485243,0.0919 -1.067533,0.28603 v -0.9194 q 0.587398,-0.16345 1.09818,-0.24518 0.515889,-0.0817 0.970484,-0.0817 1.174797,0 1.859244,0.53632 0.684447,0.53121 0.684447,1.4404 0,0.63337 -0.362655,1.07264 -0.362655,0.43417 -1.031778,0.60272 z"
       style="font-size:10.4608px;font-family:ArialMT"
       id="path1585" />
  </g>
  <path
     id="line17"
     style="fill:none;stroke:#00a0c6;stroke-width:0.797;stroke-linecap:square;stroke-miterlimit:10"
     d="M 77.013054,322.5177 V 24.881687" />
  <g
     aria-label="-2"
     id="text19"
     style="font-size:10.4608px;font-family:ArialMT">
    <path
       d="m 91.104241,166.27949 h 2.753111 v 0.83768 h -2.753111 z"
       style="font-size:10.4608px;font-family:ArialMT"
       id="path1577" />
    <path
       d="m 96.375504,168.69548 h 3.601008 v 0.86833 h -4.842207 v -0.86833 q 0.587399,-0.60783 1.598746,-1.62939 1.016454,-1.02667 1.276953,-1.32292 0.495458,-0.55675 0.689555,-0.93984 0.199204,-0.38819 0.199204,-0.76106 0,-0.60783 -0.429056,-0.99092 -0.423948,-0.38308 -1.108395,-0.38308 -0.485242,0 -1.026671,0.16855 -0.53632,0.16856 -1.149257,0.51078 v -1.04199 q 0.623153,-0.25028 1.164581,-0.37798 0.541428,-0.12769 0.990915,-0.12769 1.185013,0 1.889891,0.5925 0.704878,0.59251 0.704878,1.58343 0,0.46991 -0.178773,0.89386 -0.173666,0.41884 -0.638477,0.99092 -0.127695,0.14812 -0.812142,0.85811 -0.684447,0.70488 -1.930753,1.97672 z"
       style="font-size:10.4608px;font-family:ArialMT"
       id="path1579" />
  </g>
  <path
     id="line21"
     style="fill:none;stroke:#00a0c6;stroke-width:0.797;stroke-linecap:square;stroke-miterlimit:10"
     d="M 101.81506,322.5177 V 24.881687" />
  <g
     aria-label="-1"
     id="text23"
     style="font-size:10.4608px;font-family:ArialMT">
    <path
       d="m 115.90702,166.14158 h 2.75311 v 0.83768 h -2.75311 z"
       style="font-size:10.4608px;font-family:ArialMT"
       id="path1571" />
    <path
       d="m 120.4683,168.55758 h 1.68558 v -5.8178 l -1.83371,0.36776 v -0.93984 l 1.82349,-0.36776 h 1.03178 v 6.75764 h 1.68558 v 0.86832 h -4.39272 z"
       style="font-size:10.4608px;font-family:ArialMT"
       id="path1573" />
  </g>
  <path
     id="line25"
     style="fill:none;stroke:#00a0c6;stroke-width:0.797;stroke-linecap:square;stroke-miterlimit:10"
     d="M 126.62005,322.5177 V 24.881687" />
  <g
     aria-label="1"
     id="text27"
     style="font-size:10.4608px;font-family:ArialMT">
    <path
       d="m 168.74343,168.55758 h 1.68558 v -5.8178 l -1.83371,0.36776 v -0.93984 l 1.82349,-0.36776 h 1.03178 v 6.75764 h 1.68558 v 0.86832 h -4.39272 z"
       style="font-size:10.4608px;font-family:ArialMT"
       id="path1567" />
  </g>
  <path
     id="line29"
     style="fill:none;stroke:#00a0c6;stroke-width:0.797;stroke-linecap:square;stroke-miterlimit:10"
     d="M 176.22502,322.5177 V 24.881687" />
  <g
     aria-label="2"
     id="text31"
     style="font-size:10.4608px;font-family:ArialMT">
    <path
       d="m 194.25713,168.69548 h 3.601 v 0.86833 h -4.8422 v -0.86833 q 0.5874,-0.60783 1.59874,-1.62939 1.01646,-1.02667 1.27696,-1.32292 0.49545,-0.55675 0.68955,-0.93984 0.19921,-0.38819 0.19921,-0.76106 0,-0.60783 -0.42906,-0.99092 -0.42395,-0.38308 -1.1084,-0.38308 -0.48524,0 -1.02667,0.16855 -0.53632,0.16856 -1.14925,0.51078 v -1.04199 q 0.62315,-0.25028 1.16458,-0.37798 0.54143,-0.12769 0.99091,-0.12769 1.18502,0 1.88989,0.5925 0.70488,0.59251 0.70488,1.58343 0,0.46991 -0.17877,0.89386 -0.17367,0.41884 -0.63848,0.99092 -0.12769,0.14812 -0.81214,0.85811 -0.68445,0.70488 -1.93075,1.97672 z"
       style="font-size:10.4608px;font-family:ArialMT"
       id="path1563" />
  </g>
  <path
     id="line33"
     style="fill:none;stroke:#00a0c6;stroke-width:0.797;stroke-linecap:square;stroke-miterlimit:10"
     d="M 201.02803,322.5177 V 24.881687" />
  <g
     aria-label="3"
     id="text35"
     style="font-size:10.4608px;font-family:ArialMT">
    <path
       d="m 221.29702,165.45202 q 0.74063,0.15835 1.15437,0.65891 0.41884,0.50057 0.41884,1.23609 0,1.12883 -0.77639,1.74687 -0.77639,0.61805 -2.20657,0.61805 -0.48014,0 -0.99092,-0.097 -0.50567,-0.0919 -1.0471,-0.28093 v -0.99602 q 0.42905,0.25028 0.93984,0.37798 0.51078,0.12769 1.06753,0.12769 0.97048,0 1.47616,-0.38309 0.51078,-0.38308 0.51078,-1.1135 0,-0.67423 -0.47503,-1.05221 -0.46992,-0.38308 -1.31271,-0.38308 h -0.88876 v -0.8479 h 0.92963 q 0.76106,0 1.16458,-0.30136 0.40351,-0.30647 0.40351,-0.87855 0,-0.58739 -0.41884,-0.89897 -0.41373,-0.31668 -1.19012,-0.31668 -0.42395,0 -0.90919,0.0919 -0.48524,0.0919 -1.06753,0.28603 v -0.9194 q 0.5874,-0.16345 1.09818,-0.24518 0.51589,-0.0817 0.97048,-0.0817 1.1748,0 1.85925,0.53632 0.68444,0.53121 0.68444,1.4404 0,0.63337 -0.36265,1.07264 -0.36266,0.43417 -1.03178,0.60272 z"
       style="font-size:10.4608px;font-family:ArialMT"
       id="path1559" />
  </g>
  <path
     id="line37"
     style="fill:none;stroke:#00a0c6;stroke-width:0.797;stroke-linecap:square;stroke-miterlimit:10"
     d="M 225.83003,322.5177 V 24.881687" />
  <g
     aria-label="4"
     id="text39"
     style="font-size:10.4608px;font-family:ArialMT">
    <path
       d="m 245.81062,162.69891 -2.60498,4.07093 h 2.60498 z m -0.27071,-0.89897 h 1.29739 v 4.9699 h 1.08796 v 0.85811 h -1.08796 v 1.79795 h -1.02668 v -1.79795 h -3.44266 v -0.99602 z"
       style="font-size:10.4608px;font-family:ArialMT"
       id="path1555" />
  </g>
  <path
     id="line41"
     style="fill:none;stroke:#00a0c6;stroke-width:0.797;stroke-linecap:square;stroke-miterlimit:10"
     d="M 250.63606,322.5177 V 24.881687" />
  <g
     aria-label="5"
     id="text43"
     style="font-size:10.4608px;font-family:ArialMT">
    <path
       d="m 267.78779,161.79994 h 4.0505 v 0.86833 h -3.10555 v 1.86946 q 0.22474,-0.0766 0.44949,-0.11238 0.22474,-0.0409 0.44948,-0.0409 1.27696,0 2.0227,0.69977 0.74574,0.69977 0.74574,1.895 0,1.23098 -0.76617,1.91543 -0.76618,0.67934 -2.16061,0.67934 -0.48013,0 -0.9807,-0.0817 -0.49546,-0.0817 -1.02667,-0.24517 v -1.03689 q 0.4597,0.25029 0.95005,0.37287 0.49035,0.12259 1.03689,0.12259 0.88365,0 1.39954,-0.46481 0.51589,-0.46481 0.51589,-1.26163 0,-0.79682 -0.51589,-1.26163 -0.51589,-0.46481 -1.39954,-0.46481 -0.41373,0 -0.82747,0.0919 -0.40862,0.0919 -0.83768,0.28604 z"
       style="font-size:10.4608px;font-family:ArialMT"
       id="path1551" />
  </g>
  <path
     id="line45"
     style="fill:none;stroke:#00a0c6;stroke-width:0.797;stroke-linecap:square;stroke-miterlimit:10"
     d="M 275.43808,322.5177 V 24.881687" />
  <g
     aria-label="6"
     id="text47"
     style="font-size:10.4608px;font-family:ArialMT">
    <path
       d="m 294.91458,165.33965 q -0.69466,0 -1.10329,0.47503 -0.40351,0.47502 -0.40351,1.30249 0,0.82236 0.40351,1.30249 0.40863,0.47503 1.10329,0.47503 0.69466,0 1.09818,-0.47503 0.40863,-0.48013 0.40863,-1.30249 0,-0.82747 -0.40863,-1.30249 -0.40352,-0.47503 -1.09818,-0.47503 z m 2.04823,-3.23324 v 0.93983 q -0.38819,-0.18388 -0.7866,-0.28093 -0.3933,-0.097 -0.78149,-0.097 -1.02157,0 -1.56299,0.68955 -0.53632,0.68955 -0.61294,2.08399 0.30136,-0.44438 0.75595,-0.67934 0.4546,-0.24007 1.00114,-0.24007 1.14925,0 1.81327,0.69977 0.66912,0.69466 0.66912,1.895 0,1.1748 -0.69466,1.88478 -0.69466,0.70999 -1.84903,0.70999 -1.32292,0 -2.02269,-1.01135 -0.69977,-1.01645 -0.69977,-2.9421 0,-1.80816 0.85811,-2.8808 0.85811,-1.07775 2.30362,-1.07775 0.3882,0 0.7815,0.0766 0.39841,0.0766 0.82746,0.22986 z"
       style="font-size:10.4608px;font-family:ArialMT"
       id="path1547" />
  </g>
  <path
     id="line49"
     style="fill:none;stroke:#00a0c6;stroke-width:0.797;stroke-linecap:square;stroke-miterlimit:10"
     d="M 300.24106,322.5177 V 24.881687" />
  <g
     aria-label="6"
     id="text51"
     style="font-size:10.4608px;font-family:ArialMT;-inkscape-font-specification:'ArialMT, Normal'">
    <path
       d="m 143.39807,315.5804 q -0.69466,0 -1.10329,0.47503 -0.40351,0.47503 -0.40351,1.30249 0,0.82236 0.40351,1.3025 0.40863,0.47502 1.10329,0.47502 0.69466,0 1.09818,-0.47502 0.40863,-0.48014 0.40863,-1.3025 0,-0.82746 -0.40863,-1.30249 -0.40352,-0.47503 -1.09818,-0.47503 z m 2.04823,-3.23324 v 0.93984 q -0.38819,-0.18388 -0.7866,-0.28093 -0.3933,-0.0971 -0.78149,-0.0971 -1.02157,0 -1.56299,0.68955 -0.53632,0.68956 -0.61294,2.08399 0.30136,-0.44438 0.75595,-0.67934 0.4546,-0.24007 1.00114,-0.24007 1.14925,0 1.81327,0.69977 0.66912,0.69467 0.66912,1.895 0,1.1748 -0.69466,1.88479 -0.69466,0.70998 -1.84903,0.70998 -1.32292,0 -2.02269,-1.01134 -0.69977,-1.01646 -0.69977,-2.9421 0,-1.80817 0.85811,-2.88081 0.85811,-1.07775 2.30362,-1.07775 0.3882,0 0.7815,0.0766 0.39841,0.0766 0.82746,0.22985 z"
       id="path1543" />
  </g>
  <path
     id="line53"
     style="fill:none;stroke:#00a0c6;stroke-width:0.797;stroke-linecap:square;stroke-miterlimit:10"
     d="M 2.6020424,322.5177 H 300.24106" />
  <g
     aria-label="5"
     id="text55"
     style="font-size:10.4608px;font-family:ArialMT;-inkscape-font-specification:'ArialMT, Normal'">
    <path
       d="m 141.32942,287.37642 h 4.05049 v 0.86832 h -3.10555 v 1.86946 q 0.22475,-0.0766 0.44949,-0.11237 0.22475,-0.0409 0.44949,-0.0409 1.27695,0 2.02269,0.69977 0.74574,0.69977 0.74574,1.895 0,1.23098 -0.76617,1.91543 -0.76617,0.67934 -2.1606,0.67934 -0.48014,0 -0.9807,-0.0817 -0.49546,-0.0817 -1.02667,-0.24517 v -1.03689 q 0.4597,0.25028 0.95005,0.37287 0.49035,0.12259 1.03689,0.12259 0.88365,0 1.39954,-0.46481 0.51589,-0.46481 0.51589,-1.26163 0,-0.79682 -0.51589,-1.26163 -0.51589,-0.46481 -1.39954,-0.46481 -0.41374,0 -0.82747,0.0919 -0.40863,0.0919 -0.83768,0.28604 z"
       id="path1539" />
  </g>
  <path
     id="line57"
     style="fill:none;stroke:#00a0c6;stroke-width:0.797;stroke-linecap:square;stroke-miterlimit:10"
     d="M 2.6020424,297.7157 H 300.24106" />
  <g
     aria-label="4"
     id="text59"
     style="font-size:10.4608px;font-family:ArialMT;-inkscape-font-specification:'ArialMT, Normal'">
    <path
       d="m 143.82713,263.47208 -2.60498,4.07092 h 2.60498 z m -0.27071,-0.89898 h 1.29739 v 4.9699 h 1.08796 v 0.85812 h -1.08796 v 1.79795 h -1.02668 v -1.79795 h -3.44266 v -0.99603 z"
       id="path1535" />
  </g>
  <path
     id="line61"
     style="fill:none;stroke:#00a0c6;stroke-width:0.797;stroke-linecap:square;stroke-miterlimit:10"
     d="M 2.6020424,272.91168 H 300.24106" />
  <g
     aria-label="3"
     id="text63"
     style="font-size:10.4608px;font-family:ArialMT;-inkscape-font-specification:'ArialMT, Normal'">
    <path
       d="m 144.36857,241.28457 q 0.74063,0.15835 1.15437,0.65891 0.41884,0.50057 0.41884,1.23609 0,1.12883 -0.77639,1.74687 -0.77639,0.61805 -2.20658,0.61805 -0.48013,0 -0.99091,-0.097 -0.50568,-0.0919 -1.0471,-0.28093 v -0.99602 q 0.42905,0.25028 0.93983,0.37798 0.51079,0.12769 1.06754,0.12769 0.97048,0 1.47615,-0.38309 0.51079,-0.38308 0.51079,-1.1135 0,-0.67423 -0.47503,-1.05221 -0.46992,-0.38308 -1.31271,-0.38308 h -0.88876 v -0.8479 h 0.92962 q 0.76107,0 1.16459,-0.30136 0.40351,-0.30647 0.40351,-0.87855 0,-0.58739 -0.41884,-0.89897 -0.41373,-0.31668 -1.19012,-0.31668 -0.42395,0 -0.90919,0.0919 -0.48524,0.0919 -1.06753,0.28603 v -0.9194 q 0.5874,-0.16345 1.09818,-0.24518 0.51589,-0.0817 0.97048,-0.0817 1.1748,0 1.85925,0.53632 0.68444,0.53121 0.68444,1.4404 0,0.63337 -0.36265,1.07264 -0.36266,0.43417 -1.03178,0.60272 z"
       id="path1531" />
  </g>
  <path
     id="line65"
     style="fill:none;stroke:#00a0c6;stroke-width:0.797;stroke-linecap:square;stroke-miterlimit:10"
     d="M 2.6020424,248.10968 H 300.24106" />
  <g
     aria-label="2"
     id="text67"
     style="font-size:10.4608px;font-family:ArialMT;-inkscape-font-specification:'ArialMT, Normal'">
    <path
       d="m 142.34076,219.72535 h 3.60101 v 0.86832 h -4.84221 v -0.86832 q 0.5874,-0.60783 1.59875,-1.6294 1.01645,-1.02667 1.27695,-1.32292 0.49546,-0.55675 0.68955,-0.93984 0.19921,-0.38819 0.19921,-0.76106 0,-0.60783 -0.42906,-0.99092 -0.42395,-0.38308 -1.10839,-0.38308 -0.48524,0 -1.02667,0.16855 -0.53632,0.16856 -1.14926,0.51079 v -1.042 q 0.62315,-0.25028 1.16458,-0.37798 0.54143,-0.12769 0.99092,-0.12769 1.18501,0 1.88989,0.5925 0.70487,0.59251 0.70487,1.58343 0,0.46992 -0.17877,0.89386 -0.17366,0.41884 -0.63848,0.99092 -0.12769,0.14813 -0.81214,0.85811 -0.68444,0.70488 -1.93075,1.97673 z"
       id="path1527" />
  </g>
  <path
     id="line69"
     style="fill:none;stroke:#00a0c6;stroke-width:0.797;stroke-linecap:square;stroke-miterlimit:10"
     d="M 2.6020424,223.30568 H 300.24106" />
  <path
     id="line71"
     style="fill:none;stroke:#00a0c6;stroke-width:0.797;stroke-linecap:square;stroke-miterlimit:10"
     d="M 2.6020424,198.50168 H 300.24106" />
  <g
     aria-label="-1"
     id="text73"
     style="font-size:10.4608px;font-family:ArialMT;-inkscape-font-specification:'ArialMT, Normal'">
    <path
       d="m 136.98777,142.39523 h 2.75311 v 0.83768 h -2.75311 z"
       id="path1520" />
    <path
       d="m 141.54905,144.81122 h 1.68558 v -5.8178 l -1.83371,0.36777 v -0.93984 l 1.82349,-0.36776 h 1.03178 v 6.75763 h 1.68558 v 0.86833 h -4.39272 z"
       id="path1522" />
  </g>
  <path
     id="line75"
     style="fill:none;stroke:#00a0c6;stroke-width:0.797;stroke-linecap:square;stroke-miterlimit:10"
     d="M 2.6020424,148.89769 H 300.24106" />
  <g
     aria-label="-2"
     id="text77"
     style="font-size:10.4608px;font-family:ArialMT;-inkscape-font-specification:'ArialMT, Normal'">
    <path
       d="m 137.0695,117.59155 h 2.75311 v 0.83768 h -2.75311 z"
       id="path1514" />
    <path
       d="m 142.34076,120.00754 h 3.60101 v 0.86833 h -4.84221 v -0.86833 q 0.5874,-0.60783 1.59875,-1.62939 1.01645,-1.02667 1.27695,-1.32292 0.49546,-0.55676 0.68955,-0.93984 0.19921,-0.3882 0.19921,-0.76107 0,-0.60783 -0.42906,-0.99091 -0.42395,-0.38309 -1.10839,-0.38309 -0.48524,0 -1.02667,0.16856 -0.53632,0.16856 -1.14926,0.51078 v -1.04199 q 0.62315,-0.25028 1.16458,-0.37798 0.54143,-0.1277 0.99092,-0.1277 1.18501,0 1.88989,0.59251 0.70487,0.59251 0.70487,1.58342 0,0.46992 -0.17877,0.89387 -0.17366,0.41884 -0.63848,0.99092 -0.12769,0.14812 -0.81214,0.85811 -0.68444,0.70488 -1.93075,1.97672 z"
       id="path1516" />
  </g>
  <path
     id="line79"
     style="fill:none;stroke:#00a0c6;stroke-width:0.797;stroke-linecap:square;stroke-miterlimit:10"
     d="M 2.6020424,124.09369 H 300.24106" />
  <g
     aria-label="-3"
     id="text81"
     style="font-size:10.4608px;font-family:ArialMT;-inkscape-font-specification:'ArialMT, Normal'">
    <path
       d="m 136.86009,92.787843 h 2.75311 v 0.837681 h -2.75311 z"
       id="path1508" />
    <path
       d="m 144.36857,91.960377 q 0.74063,0.158343 1.15437,0.658908 0.41884,0.500566 0.41884,1.236091 0,1.128826 -0.77639,1.746872 -0.77639,0.618045 -2.20658,0.618045 -0.48013,0 -0.99091,-0.09705 -0.50568,-0.09194 -1.0471,-0.28093 v -0.996024 q 0.42905,0.250283 0.93983,0.377979 0.51079,0.127695 1.06754,0.127695 0.97048,0 1.47615,-0.383086 0.51079,-0.383086 0.51079,-1.113503 0,-0.674231 -0.47503,-1.05221 -0.46992,-0.383086 -1.31271,-0.383086 h -0.88876 v -0.847896 h 0.92962 q 0.76107,0 1.16459,-0.301361 0.40351,-0.306469 0.40351,-0.878544 0,-0.587399 -0.41884,-0.898975 -0.41373,-0.316685 -1.19012,-0.316685 -0.42395,0 -0.90919,0.09194 -0.48524,0.09194 -1.06753,0.286038 v -0.919407 q 0.5874,-0.16345 1.09818,-0.245175 0.51589,-0.08173 0.97048,-0.08173 1.1748,0 1.85925,0.536321 0.68444,0.531212 0.68444,1.440403 0,0.633369 -0.36265,1.07264 -0.36266,0.434164 -1.03178,0.602722 z"
       id="path1510" />
  </g>
  <path
     id="line83"
     style="fill:none;stroke:#00a0c6;stroke-width:0.797;stroke-linecap:square;stroke-miterlimit:10"
     d="M 2.6020424,99.289688 H 300.24106" />
  <g
     aria-label="-4"
     id="text85"
     style="font-size:10.4608px;font-family:ArialMT;-inkscape-font-specification:'ArialMT, Normal'">
    <path
       d="m 136.6098,67.98504 h 2.75311 v 0.837681 h -2.75311 z"
       id="path1502" />
    <path
       d="m 143.82713,64.542374 -2.60498,4.070927 h 2.60498 z m -0.27071,-0.898975 h 1.29739 v 4.969902 h 1.08796 v 0.858112 h -1.08796 v 1.79795 h -1.02668 v -1.79795 h -3.44266 V 68.47539 Z"
       id="path1504" />
  </g>
  <path
     id="line87"
     style="fill:none;stroke:#00a0c6;stroke-width:0.797;stroke-linecap:square;stroke-miterlimit:10"
     d="M 2.6020424,74.487686 H 300.24106" />
  <g
     aria-label="-5"
     id="text89"
     style="font-size:10.4608px;font-family:ArialMT;-inkscape-font-specification:'ArialMT, Normal'">
    <path
       d="m 136.9367,43.182344 h 2.75311 v 0.837681 h -2.75311 z"
       id="path1496" />
    <path
       d="m 141.32942,38.840703 h 4.05049 v 0.868328 h -3.10555 v 1.86946 q 0.22475,-0.07662 0.44949,-0.112372 0.22475,-0.04086 0.44949,-0.04086 1.27695,0 2.02269,0.69977 0.74574,0.699771 0.74574,1.894999 0,1.230983 -0.76617,1.91543 -0.76617,0.679339 -2.1606,0.679339 -0.48014,0 -0.9807,-0.08173 -0.49546,-0.08172 -1.02667,-0.245175 v -1.036886 q 0.4597,0.250283 0.95005,0.37287 0.49035,0.122588 1.03689,0.122588 0.88365,0 1.39954,-0.464811 0.51589,-0.464811 0.51589,-1.26163 0,-0.796819 -0.51589,-1.26163 -0.51589,-0.464811 -1.39954,-0.464811 -0.41374,0 -0.82747,0.09194 -0.40863,0.09194 -0.83768,0.286037 z"
       id="path1498" />
  </g>
  <path
     id="line91"
     style="fill:none;stroke:#00a0c6;stroke-width:0.797;stroke-linecap:square;stroke-miterlimit:10"
     d="M 2.6020424,49.683689 H 300.24106" />
  <g
     aria-label="1"
     id="text93"
     style="font-size:10.4608px;-inkscape-font-specification:'sans-serif, Normal'">
    <path
       d="m 141.54905,196.34098 h 1.68558 v -5.8178 l -1.83371,0.36776 v -0.93984 l 1.82349,-0.36776 h 1.03178 v 6.75764 h 1.68558 v 0.86832 h -4.39272 z"
       id="path1492" />
  </g>
  <path
     id="line95"
     style="fill:none;stroke:#00a0c6;stroke-width:0.797;stroke-linecap:square;stroke-miterlimit:10"
     d="M 2.6020424,24.881687 H 300.24106" />
  <path
     id="polyline97"
     transform="translate(2.204,-0.55331)"
     d="m 11.383,170.331 -10.985,3.922 10.985,3.922 -4.394,-3.922" />
  <path
     id="polyline99"
     transform="translate(2.204,-0.55331)"
     d="m 287.052,178.175 10.985,-3.922 -10.985,-3.922 4.393,3.922" />
  <path
     id="polyline101"
     transform="translate(2.204,-0.55331)"
     d="m 145.295,312.088 3.924,10.983 3.922,-10.983 -3.922,4.393" />
  <path
     id="polyline103"
     transform="translate(2.204,-0.55331)"
     d="m 153.141,36.417 -3.922,-10.982 -3.924,10.982 3.924,-4.392" />
  <g
     aria-label="y-axis"
     id="text105"
     style="font-size:20.9214px;font-family:ArialMT">
    <path
       d="m 127.61573,20.459302 q -0.79681,2.043105 -1.55276,2.666252 -0.75595,0.623147 -2.02267,0.623147 h -1.50169 V 22.17551 h 1.10328 q 0.77638,0 1.20543,-0.367759 0.42905,-0.367759 0.95005,-1.736639 l 0.33711,-0.858105 -4.62764,-11.2575108 h 1.99203 l 3.57544,8.9488018 3.57543,-8.9488018 h 1.99203 z"
       style="font-size:20.9214px;font-family:ArialMT"
       id="path1474" />
    <path
       d="m 133.91871,12.828303 h 5.50617 v 1.675346 h -5.50617 z"
       style="font-size:20.9214px;font-family:ArialMT"
       id="path1476" />
    <path
       d="m 147.61773,13.645545 q -2.27806,0 -3.1566,0.520992 -0.87853,0.520992 -0.87853,1.777502 0,1.001121 0.65379,1.593622 0.66401,0.582285 1.79794,0.582285 1.56297,0 2.5028,-1.103277 0.95004,-1.113493 0.95004,-2.952287 v -0.418837 z m 3.7491,-0.77638 v 6.527722 h -1.87966 v -1.73664 q -0.64357,1.041984 -1.60383,1.542545 -0.96026,0.490345 -2.34958,0.490345 -1.75707,0 -2.79905,-0.980691 -1.03177,-0.990906 -1.03177,-2.645821 0,-1.930735 1.28716,-2.911425 1.29737,-0.980691 3.86147,-0.980691 h 2.6356 v -0.18388 q 0,-1.297372 -0.8581,-2.0022429 -0.84789,-0.7150869 -2.39043,-0.7150869 -0.98069,0 -1.91031,0.2349571 -0.92961,0.2349572 -1.78771,0.7048717 V 8.4764881 q 1.03176,-0.3984056 2.00224,-0.5925006 0.97047,-0.2043106 1.88987,-0.2043106 2.48237,0 3.70824,1.2871565 1.22586,1.2871566 1.22586,3.9023316 z"
       style="font-size:20.9214px;font-family:ArialMT"
       id="path1478" />
    <path
       d="m 164.74917,7.9554962 -4.13729,5.5674628 4.35182,5.873928 h -2.21677 l -3.33026,-4.494832 -3.33027,4.494832 h -2.21677 l 4.44376,-5.986299 -4.06578,-5.4550918 h 2.21677 l 3.03401,4.0759958 3.03401,-4.0759958 z"
       style="font-size:20.9214px;font-family:ArialMT"
       id="path1480" />
    <path
       d="m 167.61974,7.9554962 h 1.87965 V 19.396887 h -1.87965 z m 0,-4.45397 h 1.87965 v 2.3802179 h -1.87965 z"
       style="font-size:20.9214px;font-family:ArialMT"
       id="path1482" />
    <path
       d="M 180.72626,8.2926086 V 10.07011 q -0.79681,-0.4086208 -1.65492,-0.6129313 -0.8581,-0.2043106 -1.7775,-0.2043106 -1.39953,0 -2.1044,0.4290522 -0.69465,0.4290517 -0.69465,1.2871567 0,0.653793 0.50056,1.031768 0.50056,0.367759 2.01245,0.704871 l 0.64358,0.143018 q 2.00225,0.429052 2.83992,1.215648 0.84789,0.77638 0.84789,2.175907 0,1.593622 -1.26673,2.523235 -1.25651,0.929613 -3.46306,0.929613 -0.9194,0 -1.92052,-0.183879 -0.99091,-0.173664 -2.09418,-0.531208 V 17.0371 q 1.04198,0.541423 2.05332,0.817242 1.01134,0.265604 2.00224,0.265604 1.32802,0 2.04311,-0.449483 0.71508,-0.459699 0.71508,-1.287157 0,-0.766164 -0.52099,-1.174785 -0.51077,-0.408621 -2.25763,-0.786596 l -0.65379,-0.153233 q -1.74686,-0.367759 -2.52324,-1.123708 -0.77638,-0.766164 -0.77638,-2.094183 0,-1.6140534 1.14414,-2.4925887 1.14414,-0.8785354 3.24854,-0.8785354 1.04198,0 1.96138,0.1532329 0.9194,0.1532329 1.69578,0.4596988 z"
       style="font-size:20.9214px;font-family:ArialMT"
       id="path1484" />
  </g>
  <g
     aria-label="x-axis"
     id="text107"
     style="font-size:20.9214px;font-family:ArialMT">
    <path
       d="m 314.99715,168.53745 -4.13729,5.56746 4.35181,5.87393 h -2.21677 l -3.33026,-4.49484 -3.33026,4.49484 h -2.21677 l 4.44375,-5.9863 -4.06578,-5.45509 h 2.21677 l 3.03401,4.07599 3.03402,-4.07599 z"
       style="font-size:20.9214px;font-family:ArialMT"
       id="path1461" />
    <path
       d="m 316.91766,173.41025 h 5.50617 v 1.67535 h -5.50617 z"
       style="font-size:20.9214px;font-family:ArialMT"
       id="path1463" />
    <path
       d="m 330.61669,174.22749 q -2.27807,0 -3.1566,0.521 -0.87854,0.52099 -0.87854,1.7775 0,1.00112 0.6538,1.59362 0.66401,0.58229 1.79793,0.58229 1.56298,0 2.5028,-1.10328 0.95005,-1.11349 0.95005,-2.95229 v -0.41884 z m 3.7491,-0.77638 v 6.52773 h -1.87966 v -1.73664 q -0.64358,1.04198 -1.60384,1.54254 -0.96026,0.49035 -2.34957,0.49035 -1.75707,0 -2.79905,-0.98069 -1.03177,-0.99091 -1.03177,-2.64583 0,-1.93073 1.28715,-2.91142 1.29738,-0.98069 3.86147,-0.98069 h 2.63561 v -0.18388 q 0,-1.29737 -0.85811,-2.00224 -0.84788,-0.71509 -2.39043,-0.71509 -0.98069,0 -1.9103,0.23496 -0.92962,0.23495 -1.78772,0.70487 v -1.73664 q 1.03177,-0.39841 2.00224,-0.5925 0.97048,-0.20431 1.88988,-0.20431 2.48237,0 3.70823,1.28715 1.22587,1.28716 1.22587,3.90233 z"
       style="font-size:20.9214px;font-family:ArialMT"
       id="path1465" />
    <path
       d="m 347.74813,168.53745 -4.13729,5.56746 4.35181,5.87393 h -2.21677 l -3.33026,-4.49484 -3.33026,4.49484 h -2.21677 l 4.44375,-5.9863 -4.06578,-5.45509 h 2.21677 l 3.03401,4.07599 3.03402,-4.07599 z"
       style="font-size:20.9214px;font-family:ArialMT"
       id="path1467" />
    <path
       d="m 350.61869,168.53745 h 1.87965 v 11.44139 h -1.87965 z m 0,-4.45397 h 1.87965 v 2.38021 h -1.87965 z"
       style="font-size:20.9214px;font-family:ArialMT"
       id="path1469" />
    <path
       d="m 363.72521,168.87456 v 1.7775 q -0.79681,-0.40862 -1.65491,-0.61293 -0.85811,-0.20431 -1.77751,-0.20431 -1.39952,0 -2.10439,0.42905 -0.69466,0.42905 -0.69466,1.28716 0,0.65379 0.50056,1.03176 0.50056,0.36776 2.01246,0.70488 l 0.64358,0.14301 q 2.00224,0.42906 2.83991,1.21565 0.84789,0.77638 0.84789,2.17591 0,1.59362 -1.26672,2.52323 -1.25651,0.92962 -3.46307,0.92962 -0.91939,0 -1.92052,-0.18388 -0.9909,-0.17367 -2.09418,-0.53121 v -1.94095 q 1.04199,0.54142 2.05332,0.81724 1.01134,0.26561 2.00225,0.26561 1.32801,0 2.0431,-0.44949 0.71509,-0.4597 0.71509,-1.28715 0,-0.76617 -0.52099,-1.17479 -0.51078,-0.40862 -2.25763,-0.7866 l -0.6538,-0.15323 q -1.74685,-0.36776 -2.52323,-1.12371 -0.77638,-0.76616 -0.77638,-2.09418 0,-1.61405 1.14414,-2.49259 1.14413,-0.87853 3.24853,-0.87853 1.04199,0 1.96138,0.15323 0.9194,0.15323 1.69578,0.4597 z"
       style="font-size:20.9214px;font-family:ArialMT"
       id="path1471" />
  </g>
  <path
     id="line109"
     style="fill:none;stroke:#000000;stroke-width:2;stroke-miterlimit:10"
     d="M 9.1930456,173.69969 H 293.64908" />
  <path
     id="line111"
     style="fill:none;stroke:#000000;stroke-width:2;stroke-miterlimit:10"
     d="M 151.42302,315.92767 V 31.471689" />
</svg>
