<?xml version="1.0" encoding="UTF-8" standalone="no"?>
<!-- Created with Inkscape (http://www.inkscape.org/) -->

<svg
   width="200"
   height="200"
   viewBox="0 0 200 200"
   version="1.1"
   id="svg5"
   inkscape:version="1.1 (c68e22c387, 2021-05-23)"
   sodipodi:docname="logo.svg"
   inkscape:export-filename="/home/felix/projects/libraries/tvg/design/logo.png"
   inkscape:export-xdpi="245.75999"
   inkscape:export-ydpi="245.75999"
   xmlns:inkscape="http://www.inkscape.org/namespaces/inkscape"
   xmlns:sodipodi="http://sodipodi.sourceforge.net/DTD/sodipodi-0.dtd"
   xmlns="http://www.w3.org/2000/svg"
   xmlns:svg="http://www.w3.org/2000/svg">
  <sodipodi:namedview
     id="namedview7"
     pagecolor="#ffffff"
     bordercolor="#666666"
     borderopacity="1.0"
     inkscape:pageshadow="2"
     inkscape:pageopacity="0.0"
     inkscape:pagecheckerboard="0"
     inkscape:document-units="px"
     showgrid="true"
     units="px"
     width="768px"
     fit-margin-top="0"
     fit-margin-left="0"
     fit-margin-right="0"
     fit-margin-bottom="0"
     showguides="false"
     inkscape:guide-bbox="true"
     inkscape:zoom="3.5649079"
     inkscape:cx="85.415952"
     inkscape:cy="107.57641"
     inkscape:window-width="1920"
     inkscape:window-height="1058"
     inkscape:window-x="0"
     inkscape:window-y="0"
     inkscape:window-maximized="1"
     inkscape:current-layer="layer1"
     scale-x="0.26458">
    <sodipodi:guide
       position="24.858937,195.48397"
       orientation="1,0"
       id="guide13003" />
    <sodipodi:guide
       position="174.75094,193.51495"
       orientation="1,0"
       id="guide13005" />
    <sodipodi:guide
       position="192.71829,185.88498"
       orientation="0,-1"
       id="guide13007" />
    <sodipodi:guide
       position="66.208455,11.134031"
       orientation="0,-1"
       id="guide13009" />
    <sodipodi:guide
       position="49.964001,185.88498"
       orientation="1,0"
       id="guide13011" />
    <sodipodi:guide
       position="149.892,185.88498"
       orientation="1,0"
       id="guide13013" />
    <sodipodi:guide
       position="174.75094,161.02604"
       orientation="0,-1"
       id="guide13015" />
    <sodipodi:guide
       position="180.16576,35.992969"
       orientation="0,-1"
       id="guide13017" />
    <inkscape:grid
       type="xygrid"
       id="grid852" />
  </sodipodi:namedview>
  <defs
     id="defs2" />
  <g
     inkscape:label="Ebene 1"
     inkscape:groupmode="layer"
     id="layer1"
     transform="translate(-0.11715782,-99.103813)">
    <path
       style="fill:#2b0245;fill-opacity:1;stroke:none;stroke-width:0.264583px;stroke-linecap:butt;stroke-linejoin:miter;stroke-opacity:1"
       d="M 50.117158,109.10381 H 150.11716 l 25,25 v 130 l -25,25 H 50.117158 l -25,-25 -1e-6,-130 z"
       id="path12687"
       sodipodi:nodetypes="ccccccccc" />
    <g
       aria-label="Tiny Vector Graphics"
       transform="matrix(0.95034514,0,0,1.0522493,-0.64704664,2.6593522)"
       id="text3058"
       style="font-weight:bold;font-size:12.7604px;line-height:1.25;font-family:Cantarell;-inkscape-font-specification:'Cantarell, Bold';fill:#feb93f;stroke-width:0.319009">
      <path
         d="m 47.58703,251.69521 h 1.620571 v -7.4138 h 2.858329 v -1.44192 h -7.324469 v 1.44192 h 2.845569 z"
         id="path835" />
      <path
         d="m 53.099518,251.69521 h 1.633331 v -6.20156 h -1.633331 z m 0.829426,-7.34999 c 0.599739,0 0.995311,-0.38282 0.995311,-0.99532 0,-0.61249 -0.395572,-1.00807 -0.995311,-1.00807 -0.612499,0 -1.008072,0.39558 -1.008072,1.00807 0,0.6125 0.395573,0.99532 1.008072,0.99532 z"
         id="path837" />
      <path
         d="m 60.666427,251.69521 h 1.62057 v -3.82812 c 0,-1.53125 -0.867707,-2.47552 -2.25859,-2.47552 -0.752864,0 -1.454686,0.26797 -2.003383,0.77838 l -0.280729,-0.6763 h -1.173957 v 6.20156 h 1.633331 v -4.44062 c 0.370052,-0.29349 0.791145,-0.44662 1.26328,-0.44662 0.791145,0 1.199478,0.44662 1.199478,1.2888 z"
         id="path839" />
      <path
         d="m 64.417963,254.46421 h 1.760935 l 0.995311,-2.769 2.373435,-6.20156 h -1.620571 l -1.544008,4.69583 -1.454686,-4.69583 h -1.799216 l 2.411715,6.20156 z"
         id="path841" />
      <path
         d="m 75.493956,251.69521 h 1.709894 l 3.1901,-8.85572 h -1.684373 l -2.284111,6.90337 -2.194789,-6.90337 h -1.91406 z"
         id="path843" />
      <path
         d="m 84.400708,251.82281 c 0.727343,0 1.518488,-0.15313 2.194789,-0.43385 l -0.370051,-1.12292 c -0.497656,0.20417 -1.046353,0.31901 -1.56953,0.31901 -1.110154,0 -1.799216,-0.52318 -1.990622,-1.54401 h 4.019526 c 0.03828,-0.25521 0.07656,-0.63802 0.07656,-0.91875 0,-1.69713 -1.033592,-2.75624 -2.692444,-2.75624 -1.850258,0 -3.088017,1.31432 -3.088017,3.24114 0,1.99062 1.301561,3.21562 3.419787,3.21562 z m -1.773695,-3.77708 c 0.08932,-0.93151 0.548697,-1.42916 1.327081,-1.42916 0.803906,0 1.27604,0.52317 1.27604,1.42916 z"
         id="path845" />
      <path
         d="m 90.946777,251.82281 c 0.752863,0 1.454685,-0.16589 2.041664,-0.4849 L 92.631149,250.215 c -0.446614,0.19141 -0.918748,0.29349 -1.327081,0.29349 -1.148436,0 -1.811977,-0.71458 -1.811977,-1.95234 0,-1.17396 0.599739,-1.81198 1.697133,-1.81198 0.459375,0 0.982551,0.10208 1.429165,0.28073 l 0.344531,-1.2888 c -0.535937,-0.24245 -1.186717,-0.37005 -1.824737,-0.37005 -2.003383,0 -3.304944,1.32708 -3.304944,3.36874 0,1.93958 1.161196,3.08802 3.113538,3.08802 z"
         id="path847" />
      <path
         d="m 96.739977,251.78453 c 0.421093,0 0.880467,-0.0893 1.27604,-0.21693 l -0.331771,-1.16119 c -0.178645,0.0766 -0.395572,0.11484 -0.586978,0.11484 -0.586978,0 -0.95703,-0.34453 -0.95703,-0.88047 v -2.84557 h 1.556769 v -1.30156 h -1.556769 v -1.79921 h -1.60781 v 1.79921 h -0.867707 v 1.30156 h 0.867707 v 2.94765 c 0,1.25052 0.829426,2.04167 2.207549,2.04167 z"
         id="path849" />
      <path
         d="m 101.86965,251.82281 c 1.95234,0 3.26666,-1.33984 3.26666,-3.33046 0,-1.9013 -1.21224,-3.1263 -3.07525,-3.1263 -1.96511,0 -3.279426,1.32708 -3.279426,3.33046 0,1.88854 1.199477,3.1263 3.088016,3.1263 z m 0.14036,-1.37812 c -0.95703,0 -1.58228,-0.74011 -1.58228,-1.88854 0,-1.12292 0.57421,-1.81198 1.4802,-1.81198 0.95703,0 1.58229,0.75286 1.58229,1.91406 0,1.09739 -0.57422,1.78646 -1.48021,1.78646 z"
         id="path851" />
      <path
         d="m 106.59099,251.69521 h 1.63333 v -4.03229 c 0.37005,-0.44661 0.89323,-0.70182 1.46744,-0.70182 0.25521,0 0.56146,0.051 0.79115,0.14036 l 0.37005,-1.49297 c -0.25521,-0.11484 -0.58698,-0.17864 -0.91875,-0.17864 -0.7401,0 -1.4164,0.35729 -1.88854,0.98255 l -0.15312,-0.91875 h -1.30156 z"
         id="path853" />
      <path
         d="m 118.70059,251.82281 c 1.32708,0 2.47552,-0.39557 3.41979,-1.17396 v -3.9302 h -3.77708 v 1.40364 h 2.18203 v 1.88854 c -0.44662,0.22969 -0.99532,0.37005 -1.60782,0.37005 -1.85025,0 -3.03697,-1.23775 -3.03697,-3.21562 0,-1.91406 1.11015,-2.99869 3.07526,-2.99869 0.77838,0 1.68437,0.16588 2.37343,0.40833 l 0.45937,-1.2888 c -0.76562,-0.37005 -1.73541,-0.57422 -2.73072,-0.57422 -2.97317,0 -4.89999,1.86302 -4.89999,4.64479 0,2.67968 1.81197,4.46614 4.5427,4.46614 z"
         id="path855" />
      <path
         d="m 123.72819,251.69521 h 1.63333 v -4.03229 c 0.37005,-0.44661 0.89322,-0.70182 1.46744,-0.70182 0.25521,0 0.56146,0.051 0.79115,0.14036 l 0.37005,-1.49297 c -0.25521,-0.11484 -0.58698,-0.17864 -0.91875,-0.17864 -0.7401,0 -1.4164,0.35729 -1.88854,0.98255 l -0.15312,-0.91875 h -1.30156 z"
         id="path857" />
      <path
         d="m 132.85187,251.69521 h 1.17395 v -3.72604 c 0,-1.68437 -0.95703,-2.60312 -2.79453,-2.60312 -0.88046,0 -1.83749,0.21692 -2.56484,0.59974 l 0.38282,1.13567 c 0.65078,-0.25521 1.26328,-0.38281 1.83749,-0.38281 0.99532,0 1.53125,0.38281 1.53125,1.12291 v 0.16589 c -2.67968,0.0383 -3.8664,0.65078 -3.8664,1.9651 0,1.12292 0.82943,1.85026 2.14375,1.85026 0.79114,0 1.45468,-0.25521 1.92682,-0.7401 z m -0.43386,-1.59505 c -0.30625,0.28072 -0.71458,0.44661 -1.18672,0.44661 -0.62525,0 -1.04635,-0.31901 -1.04635,-0.79115 0,-0.56145 0.63802,-0.81666 2.23307,-0.84218 z"
         id="path859" />
      <path
         d="m 138.84923,251.82281 c 1.67161,0 2.87109,-1.37812 2.87109,-3.33046 0,-1.85026 -1.11015,-3.1263 -2.7052,-3.1263 -0.75287,0 -1.41641,0.29349 -1.88854,0.81666 l -0.29349,-0.68906 h -1.0974 v 8.97056 h 1.58229 v -3.17734 c 0.39557,0.34453 0.93151,0.53594 1.53125,0.53594 z m -1.53125,-2.07995 v -2.47551 c 0.31901,-0.33177 0.75287,-0.52318 1.23776,-0.52318 0.93151,0 1.51849,0.71458 1.51849,1.87578 0,1.12291 -0.53594,1.82474 -1.44193,1.82474 -0.54869,0 -1.03359,-0.26797 -1.31432,-0.70183 z"
         id="path861" />
      <path
         d="m 147.24555,251.69521 h 1.63333 v -3.89193 c 0,-1.49296 -0.88046,-2.41171 -2.28411,-2.41171 -0.66354,0 -1.30156,0.21692 -1.81197,0.66354 v -3.78984 h -1.60781 v 9.42994 h 1.60781 v -4.38958 c 0.35729,-0.34453 0.79114,-0.49766 1.25052,-0.49766 0.8039,0 1.21223,0.44662 1.21223,1.2888 z"
         id="path863" />
      <path
         d="m 150.58877,251.69521 h 1.63333 v -6.20156 h -1.63333 z m 0.82942,-7.34999 c 0.59974,0 0.99531,-0.38282 0.99531,-0.99532 0,-0.61249 -0.39557,-1.00807 -0.99531,-1.00807 -0.6125,0 -1.00807,0.39558 -1.00807,1.00807 0,0.6125 0.39557,0.99532 1.00807,0.99532 z"
         id="path865" />
      <path
         d="m 156.79032,251.82281 c 0.75286,0 1.45468,-0.16589 2.04166,-0.4849 l -0.35729,-1.12291 c -0.44661,0.19141 -0.91875,0.29349 -1.32708,0.29349 -1.14844,0 -1.81198,-0.71458 -1.81198,-1.95234 0,-1.17396 0.59974,-1.81198 1.69713,-1.81198 0.45938,0 0.98256,0.10208 1.42917,0.28073 l 0.34453,-1.2888 c -0.53594,-0.24245 -1.18672,-0.37005 -1.82474,-0.37005 -2.00338,0 -3.30494,1.32708 -3.30494,3.36874 0,1.93958 1.1612,3.08802 3.11354,3.08802 z"
         id="path867" />
      <path
         d="m 162.16243,251.82281 c 1.69713,0 2.7052,-0.75286 2.7052,-1.99062 0,-2.3224 -3.50911,-1.54401 -3.50911,-2.59036 0,-0.37006 0.44662,-0.59974 1.19948,-0.59974 0.51042,0 1.12292,0.10208 1.69713,0.26797 l 0.34453,-1.225 c -0.57421,-0.20417 -1.30156,-0.31901 -2.00338,-0.31901 -1.77369,0 -2.80729,0.71458 -2.80729,1.99062 0,2.30963 3.45807,1.42916 3.45807,2.55208 0,0.39557 -0.42109,0.63802 -1.11015,0.63802 -0.59974,0 -1.42917,-0.16589 -2.07995,-0.42109 l -0.35729,1.21223 c 0.70182,0.30625 1.60781,0.4849 2.46276,0.4849 z"
         id="path869" />
    </g>
    <path
       id="path5903"
       style="fill:#feb93f;fill-opacity:1;stroke:none;stroke-width:1.765;stroke-linecap:round;stroke-linejoin:round;stroke-miterlimit:4;stroke-dasharray:none;stroke-opacity:1"
       d="m 89.072096,153.78615 0.09405,20.72896 -14.034286,-13.26172 11.185364,51.20152 13.092223,15.10503 -32.492071,16.53594 34.610814,2.66908 4.66896,5.65651 3.68712,-10.7642 17.51831,-11.75691 -2.3394,-21.31549 8.25376,0.0517 -11.96723,-8.39845 -10.18232,6.90242 -6.27713,-17.7245 z m -11.184845,12.30519 25.142649,23.3009 -15.607314,21.17494 z m 43.345679,36.17608 7.61917,4.92735 -15.23886,0.12609 z m -8.85786,8.31991 12.42663,9.82421 0.93793,8.10079 -7.68946,-1.88774 z m 1.77767,17.62993 -28.653035,15.6254 -12.380123,-0.93327 27.803988,-14.4291 z" />
    <g
       aria-label="TinyVG"
       id="text3363"
       style="font-weight:bold;font-size:32px;line-height:1.25;font-family:Cantarell;-inkscape-font-specification:'Cantarell, Bold';fill:#feb93f">
      <path
         d="m 55.141237,144.81628 h 4.064 v -18.592 h 7.168 v -3.616 h -18.368 v 3.616 h 7.136 z"
         id="path1580" />
      <path
         d="m 68.965224,144.81628 h 4.096 v -15.552 h -4.096 z m 2.08,-18.432 c 1.504,0 2.496,-0.96 2.496,-2.496 0,-1.536 -0.992,-2.528 -2.496,-2.528 -1.536,0 -2.528,0.992 -2.528,2.528 0,1.536 0.992,2.496 2.528,2.496 z"
         id="path1582" />
      <path
         d="m 87.941204,144.81628 h 4.064 v -9.6 c 0,-3.84 -2.176,-6.208 -5.664,-6.208 -1.888,0 -3.648,0.672 -5.024,1.952 l -0.704,-1.696 h -2.944 v 15.552 h 4.096 v -11.136 c 0.928,-0.736 1.984,-1.12 3.168,-1.12 1.984,0 3.008,1.12 3.008,3.232 z"
         id="path1584" />
      <path
         d="m 97.349149,151.76028 h 4.416001 l 2.496,-6.944 5.952,-15.552 h -4.064 l -3.872,11.776 -3.648001,-11.776 h -4.512 l 6.048001,15.552 z"
         id="path1586" />
      <path
         d="m 118.40509,144.81628 h 4.288 l 8,-22.208 h -4.224 l -5.728,17.312 -5.504,-17.312 h -4.8 z"
         id="path1588" />
      <path
         d="m 143.65308,145.13628 c 3.328,0 6.208,-0.992 8.576,-2.944 v -9.856 h -9.472 v 3.52 h 5.472 v 4.736 c -1.12,0.576 -2.496,0.928 -4.032,0.928 -4.64,0 -7.616,-3.104 -7.616,-8.064 0,-4.8 2.784,-7.52 7.712,-7.52 1.952,0 4.224,0.416 5.952,1.024 l 1.152,-3.232 c -1.92,-0.928 -4.352,-1.44 -6.848,-1.44 -7.456,0 -12.288,4.672 -12.288,11.648 0,6.72 4.544,11.2 11.392,11.2 z"
         id="path1590" />
    </g>
  </g>
</svg>
